<mxfile host="app.diagrams.net" modified="2024-05-25T22:33:14.324Z" agent="Mozilla/5.0 (Macintosh; Intel Mac OS X 10_15_7) AppleWebKit/537.36 (KHTML, like Gecko) Chrome/124.0.0.0 Safari/537.36" etag="-SSUXI8nlz_s9yJxdg_r" version="24.4.8" type="github">
  <diagram id="3228e29e-7158-1315-38df-8450db1d8a1d" name="Page-1">
    <mxGraphModel dx="901" dy="526" grid="0" gridSize="10" guides="1" tooltips="1" connect="1" arrows="1" fold="1" page="1" pageScale="1" pageWidth="600" pageHeight="229" background="#EFF1F3" math="0" shadow="0">
      <root>
        <mxCell id="0" />
        <mxCell id="1" parent="0" />
        <mxCell id="BWqk9ZWbY-ouSCO-_PN_-2" value="" style="triangle;whiteSpace=wrap;html=1;rotation=-90;strokeColor=none;fillColor=#525E80;" vertex="1" parent="1">
          <mxGeometry x="106" y="83" width="73" height="97.33" as="geometry" />
        </mxCell>
        <mxCell id="BWqk9ZWbY-ouSCO-_PN_-3" value="&lt;font style=&quot;font-size: 24px;&quot; color=&quot;#ffffff&quot;&gt;M&lt;/font&gt;" style="text;html=1;align=center;verticalAlign=middle;whiteSpace=wrap;rounded=0;" vertex="1" parent="1">
          <mxGeometry x="112.5" y="126" width="60" height="30" as="geometry" />
        </mxCell>
        <mxCell id="BWqk9ZWbY-ouSCO-_PN_-4" value="" style="ellipse;whiteSpace=wrap;html=1;aspect=fixed;strokeColor=none;fillColor=#68AB9F;" vertex="1" parent="1">
          <mxGeometry x="259.25" y="90" width="80" height="80" as="geometry" />
        </mxCell>
        <mxCell id="BWqk9ZWbY-ouSCO-_PN_-5" value="&lt;font style=&quot;font-size: 24px;&quot; color=&quot;#ffffff&quot;&gt;G&lt;/font&gt;" style="text;html=1;align=center;verticalAlign=middle;whiteSpace=wrap;rounded=0;" vertex="1" parent="1">
          <mxGeometry x="269.25" y="115" width="60" height="30" as="geometry" />
        </mxCell>
        <mxCell id="BWqk9ZWbY-ouSCO-_PN_-8" value="" style="rounded=1;whiteSpace=wrap;html=1;strokeColor=none;fillColor=#C89931;" vertex="1" parent="1">
          <mxGeometry x="428" y="95" width="81" height="75" as="geometry" />
        </mxCell>
        <mxCell id="BWqk9ZWbY-ouSCO-_PN_-9" value="&lt;font color=&quot;#4d4d4d&quot; style=&quot;font-size: 18px;&quot;&gt;线程 Thread&lt;/font&gt;" style="text;html=1;align=center;verticalAlign=middle;whiteSpace=wrap;rounded=0;" vertex="1" parent="1">
          <mxGeometry x="86" y="49" width="113" height="30" as="geometry" />
        </mxCell>
        <mxCell id="BWqk9ZWbY-ouSCO-_PN_-10" value="&lt;font color=&quot;#4d4d4d&quot;&gt;&lt;span style=&quot;font-size: 18px;&quot;&gt;协程 Goroutine&lt;/span&gt;&lt;/font&gt;" style="text;html=1;align=center;verticalAlign=middle;whiteSpace=wrap;rounded=0;" vertex="1" parent="1">
          <mxGeometry x="231" y="49" width="136.5" height="30" as="geometry" />
        </mxCell>
        <mxCell id="BWqk9ZWbY-ouSCO-_PN_-11" value="&lt;font color=&quot;#4d4d4d&quot;&gt;&lt;span style=&quot;font-size: 18px;&quot;&gt;调度器 Processor&lt;/span&gt;&lt;/font&gt;" style="text;html=1;align=center;verticalAlign=middle;whiteSpace=wrap;rounded=0;" vertex="1" parent="1">
          <mxGeometry x="395.06" y="49" width="146.87" height="30" as="geometry" />
        </mxCell>
        <mxCell id="BWqk9ZWbY-ouSCO-_PN_-12" value="&lt;font style=&quot;font-size: 24px;&quot; color=&quot;#ffffff&quot;&gt;P&lt;/font&gt;" style="text;html=1;align=center;verticalAlign=middle;whiteSpace=wrap;rounded=0;" vertex="1" parent="1">
          <mxGeometry x="438.5" y="117.5" width="60" height="30" as="geometry" />
        </mxCell>
      </root>
    </mxGraphModel>
  </diagram>
</mxfile>
